<svg version="1.2" xmlns="http://www.w3.org/2000/svg" viewBox="0 0 1409 939" width="1200" height="800"><style>.a{fill:#fff}.b{fill:#279be1}.c{fill:#163152}</style><path class="a" d="m-52 497v512h1536v-1024h-1536z"/><path class="b" d="m787.5 794.6c-1.6 0.3-9.3 1.6-17 3-7.7 1.4-17.6 3.4-22 4.5-4.4 1.1-14.8 4.1-23 6.6-8.3 2.5-21.8 7.3-30 10.5-8.3 3.3-21.3 9-29 12.7-7.7 3.7-20.9 10.6-29.3 15.4-8.3 4.8-16 8.7-16.9 8.7-1 0-5.2-1.8-9.3-3.8-4.1-2.1-11.1-6.2-15.5-9.2-4.4-3-12.7-9.9-18.5-15.5l-10.5-10.2c-11.6 7.8-21.5 13.7-29.5 18.1-8 4.5-20.1 10.5-27 13.5-6.9 2.9-17 6.8-22.5 8.6-5.5 1.8-15.2 4.4-21.5 5.9-6.3 1.4-17.1 3.3-24 4.3-9.1 1.3-19.2 1.8-37 1.8-19.2 0-26.5-0.4-33.8-1.8-5-0.9-14-3.3-20-5.2-5.9-1.9-14.8-5.5-19.7-8-4.9-2.6-11.7-6.6-15-8.9-3.3-2.4-8.9-7-12.4-10.2-3.6-3.2-9-9.1-12-12.9-3.1-3.9-7.2-9.7-9-13-1.9-3.3-3.6-6.1-3.8-6.3-0.1-0.1-4 2.4-8.6 5.7-4.5 3.2-13.8 9.2-20.7 13.3-6.9 4.2-17.9 10.2-24.5 13.6-6.6 3.3-16.7 8-22.5 10.5-5.8 2.4-17.3 6.8-25.5 9.6-8.3 2.9-21.5 7-29.5 9.2-8 2.2-20.8 5.3-28.5 6.9-7.7 1.6-21.7 4-31 5.4-9.3 1.3-22 3-28 3.6-6.1 0.6-16.2 1.5-22.5 1.9l-11.5 0.7c17.8 1.2 231.5 1.6 486.3 1.7 254.7 0.1 463.2 0 463.2-0.3 0-0.3-2.6-1.3-5.8-2.2-3.1-1-8.6-3.4-12.2-5.5-4.8-2.7-11.9-9.1-27.5-24.9-11.5-11.6-23.9-23.5-27.5-26.4-3.6-2.9-9.6-7.4-13.5-10-3.9-2.6-9.7-6.1-13-7.7-3.3-1.7-9.4-4.3-13.5-5.8-4.1-1.5-12.2-3.8-18-5.2-9.3-2.2-13.1-2.5-32.5-2.8-12.1-0.2-23.4-0.1-25 0.1z"/><path class="b" d="m815.5 758.7c2.8 0.2 6.8 0.2 9 0 2.2-0.2 0-0.3-5-0.3-5 0-6.8 0.1-4 0.3z"/><path class="c" d="m726.9 614.5c-0.2 0.2-5.8 2-12.4 4-6.6 1.9-12.1 3.6-12.2 3.7-0.1 0.2-2.3 23.7-4.9 52.3-2.5 28.6-4.6 52.1-4.7 52.3-0.1 0.1-15.9 2.7-35.2 5.7-19.2 3-47.8 7.5-63.5 10-15.7 2.5-46 7.5-67.5 11.1-21.5 3.6-70.3 12.1-108.5 18.9-38.2 6.8-80.1 14.2-93 16.4-12.9 2.3-24.5 4.3-25.7 4.6-2.3 0.5-2.2 0.6 1.5 6.3 2.2 3.1 6.6 8.6 9.8 12.1 3.2 3.5 9.3 8.9 13.4 11.9 4.1 3.1 11.1 7.5 15.5 9.9 4.4 2.3 12.7 5.8 18.5 7.7 5.8 1.9 14.8 4.3 20 5.3 6.7 1.2 14.7 1.7 27 1.7 9.6 0 21.6-0.5 26.5-1.2 5-0.7 13.5-2.2 19-3.4 5.5-1.1 15.2-3.6 21.5-5.5 6.3-1.9 16.2-5.4 22-7.8 5.8-2.3 16.6-7.3 24-11 7.4-3.7 19.1-10.1 26-14.3 6.9-4.1 16.4-10.1 21.3-13.4 4.8-3.2 9.4-6 10.2-6.3 0.8-0.3 1.5 0.1 1.5 0.8 0.1 0.6 2 4.1 4.4 7.7 2.4 3.6 7.5 9.4 11.2 12.9 4.3 4 9.6 7.7 13.9 9.8 3.9 1.9 9.4 3.6 12.5 3.9 3.6 0.4 7.6 0.1 11.8-1 3.4-0.9 13.3-5.1 22-9.5 8.6-4.3 23.8-11.6 33.7-16.1 9.9-4.5 25.4-11.1 34.5-14.7 9.1-3.5 22.6-8.2 30-10.4 7.4-2.2 19.5-5.1 26.8-6.4 7.2-1.4 19.8-3 28-3.6 10.9-0.8 18-0.8 27.2 0 6.9 0.6 17.7 2.3 24 3.7 6.3 1.5 15.3 4 20 5.6 4.7 1.7 12.8 5.2 18 7.8 5.2 2.7 12.8 7.1 16.8 9.9 3.9 2.8 10.4 8.1 14.3 11.9 4 3.7 15.9 17.1 26.5 29.7 10.5 12.6 21.8 25.5 25.1 28.6 3.2 3.1 8.3 7.6 11.3 10.1 3 2.4 8.4 6.1 12 8.2 3.6 2.1 8.8 4.7 11.5 5.8 2.8 1.2 7.8 2.8 11.2 3.7 5.8 1.5-17.6 1.6-319 1.4-178.8-0.2-411.3-0.4-516.5-0.5-105.2-0.2-189.8 0-188 0.4 1.8 0.3 13.9 1.1 26.8 1.7 12.9 0.6 38.6 1.8 57 2.6 18.4 0.8 58.5 2.4 89 3.4 30.5 1.1 71 2.5 90 3.1 19 0.6 61.7 1.7 95 2.5 33.3 0.8 93.1 1.9 133 2.5 39.9 0.6 165.7 1 279.5 1 113.9 0 229.5-0.4 257-0.9 27.5-0.6 58.8-1.3 69.5-1.6 10.7-0.3 51.7-1.7 91-3 39.3-1.4 88.6-3.2 109.5-4 20.9-0.8 43-1.7 49-2 6-0.3 20.2-1 31.5-1.6 11.3-0.7 21.4-1.5 22.5-2 1.1-0.4-76.7-0.8-173-0.9-115.8-0.1-174-0.5-172-1.1 1.7-0.6 5.9-1.9 9.5-3.1 3.6-1.1 12.1-4.9 19-8.4 6.9-3.5 17.2-9.4 23-13.1 5.8-3.8 15.2-10.4 21-14.8 5.8-4.3 16.8-13.1 24.5-19.5 7.7-6.4 19.4-16.5 26-22.5 6.6-5.9 26-24.8 43-41.9 17.1-17.1 39.9-40.8 50.7-52.6 10.8-11.8 24.4-27.1 30.3-34 5.9-6.9 15-17.8 20.1-24.2 5.2-6.5 9.4-11.9 9.4-12 0-0.2-27.8 3.4-61.8 7.9-33.9 4.6-86.2 11.7-116.2 15.8-30 4.2-76.8 10.7-104 14.5-27.2 3.8-72.5 10.1-100.5 14-28 3.9-83 11.6-122 17.1-39 5.5-79.1 11.1-89 12.5-9.9 1.4-18.2 2.2-18.5 1.9-0.3-0.3 0.1-7.5 0.8-15.8 0.7-8.4 2.7-32.5 4.4-53.7 1.7-21.1 2.8-38.5 2.6-38.7-0.3-0.2-0.7-0.1-0.9 0.2z"/><path class="c" d="m530.2 55.8c2.2 4.8 6 13.9 8.5 20.2 2.4 6.3 6.4 17.8 8.8 25.5 2.4 7.7 5.9 20.3 7.9 28 1.9 7.7 4.8 20.8 6.5 29 1.6 8.3 3.9 21.5 5 29.5 1.1 8 2.5 19.9 3 26.5 0.6 6.6 1.3 19 1.6 27.5 0.4 8.5 0.2 25.6-0.4 38-0.6 12.4-2 30.4-3.1 40-1.1 9.6-3.3 25.6-4.9 35.5-1.7 9.9-4.2 23.6-5.6 30.5-1.5 6.9-4.6 20.6-7.1 30.5-2.5 9.9-6.6 25-9.1 33.5-2.5 8.5-7.4 23.8-11 34-3.6 10.2-8.9 24.8-11.9 32.5-3 7.7-8.9 22.1-13.1 32-4.3 9.9-11.4 25.2-15.8 34-4.5 8.8-11.9 22.3-16.5 30-4.6 7.7-12.8 20.8-18.3 29-5.6 8.3-13.1 19-16.7 24-3.7 5-11.1 14.4-16.5 21-5.4 6.6-13.7 16.2-18.4 21.3-4.7 5.2-10.4 11.4-12.6 13.9l-4 4.6c9.3-4.3 19.4-8.2 28.5-11.5 9.1-3.3 23.2-7.9 31.5-10.3 8.2-2.4 22.2-5.9 31-7.9 8.8-1.9 24.3-4.9 34.5-6.5 10.2-1.7 25.5-3.8 34-4.8 11.1-1.2 23.9-1.7 45-1.8 23.6 0 31.8 0.4 41 1.8 6.3 1 16 2.9 21.5 4.2 5.5 1.3 12.5 3.3 15.5 4.4 3 1.1 5.6 1.9 5.7 1.8 0-0.1 1.3-14.2 2.7-31.2 1.5-17 2.9-32.1 3.2-33.5 0.5-1.9 0.3-2.3-0.7-1.9-0.8 0.4-7.7 2.5-15.4 4.9-7.7 2.3-21.2 6.6-30 9.5-8.8 3-21.2 7.5-27.5 10-6.3 2.5-12 4.8-12.5 5-0.6 0.3 3-7.5 7.9-17.3 4.9-9.7 12-24.4 15.6-32.7 3.7-8.2 9.4-22.2 12.8-31 3.3-8.8 8.5-23.9 11.6-33.5 3.1-9.6 7.6-25.1 10.1-34.5 4.3-16.2 4.5-17.6 4.5-30.5 0-7.4-0.5-21.1-1-30.5-0.6-9.4-1.7-24.6-2.6-34-0.8-9.4-2.6-25.6-4-36-1.3-10.4-4-28.7-6-40.5-1.9-11.8-5.3-30.3-7.5-41-2.2-10.7-6.7-29.9-9.9-42.5-3.2-12.6-7.9-29.7-10.5-38-2.6-8.2-7.5-22.9-11-32.5-3.5-9.6-8.9-23.1-12-30-3.1-6.9-8.6-18.1-12.2-25-3.6-6.9-9.5-17.4-13.1-23.5-3.6-6-9.7-15.7-13.5-21.5-3.9-5.8-11.4-16.5-16.8-23.7-5.5-7.3-10.1-13.3-10.3-13.3-0.2 0 1.4 3.9 3.6 8.8z"/><path class="b" d="m519.5 26.2c2.2 1.8 7.8 6.7 12.5 10.8 4.7 4.1 13.4 11.9 19.4 17.5 6 5.5 16.1 15.6 22.5 22.5 6.3 6.9 15.3 17.2 19.9 23 4.6 5.8 12.3 16.3 17.1 23.5 4.8 7.2 11.2 17.1 14.1 22 2.9 4.9 7.4 13.3 10 18.5 2.6 5.2 6.9 14.4 9.5 20.5 2.6 6.1 7.1 18.2 10 27 2.9 8.8 6.7 21.6 8.4 28.5 1.7 6.9 4.1 18.6 5.5 26 1.4 7.4 3.2 19.6 4 27 0.9 7.4 2.1 22.9 2.7 34.5 0.8 15.5 0.8 27.2 0 44.5-0.6 12.9-1.8 29.6-2.6 37-0.9 7.4-2.7 20-4.1 28-1.4 8-4.3 22.6-6.6 32.5-2.2 9.9-4.6 20.7-5.3 24-0.7 3.3-2.7 11.4-4.5 18-1.7 6.6-5.7 19.9-8.7 29.5-3 9.6-8.3 25.1-11.8 34.5-3.5 9.4-9.5 24-13.2 32.5-3.8 8.5-11 23.5-15.9 33.2-4.9 9.8-8.4 17.6-7.9 17.3 0.5-0.2 6.2-2.4 12.5-5 6.3-2.5 17.4-6.6 24.5-9 7.1-2.4 21.1-6.9 31-10 9.9-3.1 22.3-7 27.5-8.6 5.2-1.6 10.2-3.2 11-3.4 0.8-0.2 6.9-2.1 13.5-4.1 6.6-2 18.5-5.4 26.5-7.5 8-2.2 24.2-5.9 36-8.3 11.8-2.5 28.9-5.6 38-7 9.1-1.4 22.6-3.2 30-4 7.4-0.9 23-2.1 34.5-2.7 11.5-0.6 27.1-0.8 34.5-0.4 7.4 0.3 18.9 1.1 25.5 1.6 6.6 0.6 17.9 1.9 25 3 7.2 1.1 18.4 3.1 25 4.5 6.6 1.4 17.2 4.1 23.5 6.1 6.3 1.9 16.7 5.5 23 8 6.3 2.5 16 6.8 21.5 9.6 5.5 2.8 14.5 8.1 20 11.8 5.5 3.7 12.6 9 15.8 11.8 3.1 2.8 5.7 4.8 5.7 4.3 0-0.4-1.1-7.7-2.4-16.2-1.4-8.5-3.9-22-5.6-30-1.8-8-5.4-22.4-8-32-2.6-9.6-7.1-24.7-10-33.5-2.9-8.8-8.3-24.1-12-34-3.7-9.9-9.6-24.5-13-32.5-3.4-8-10.3-23.1-15.4-33.5-5.1-10.4-13.2-26.2-18.1-35-4.8-8.8-12.7-22.3-17.3-30-4.7-7.7-13.8-21.9-20.2-31.5-6.4-9.6-16.6-24-22.5-32-6-8-15.9-20.8-22.1-28.5-6.1-7.7-16.5-20.1-23-27.5-6.4-7.4-22.1-23.9-34.8-36.5-12.7-12.7-29.6-28.7-37.6-35.6-8-6.9-18.8-15.9-24-20.1-5.2-4.1-14.9-11.5-21.5-16.3-6.6-4.9-18.5-13.2-26.5-18.5-8-5.4-19-12.4-24.5-15.7-5.5-3.3-15.4-9-22-12.7-6.6-3.7-21-11.2-32-16.6-11-5.4-26.5-12.6-34.5-16-8-3.4-22.4-9-32-12.5-9.6-3.5-24.5-8.4-33-11-8.5-2.5-27.2-7.5-41.5-11.1-14.3-3.6-26.9-6.7-28-7-1.2-0.4-0.5 0.7 2 2.8z"/></svg>